<svg 
 xmlns="http://www.w3.org/2000/svg"
 xmlns:xlink="http://www.w3.org/1999/xlink"
 width="56px" height="58px">
<path fill-rule="evenodd"  fill="rgb(255, 255, 255)"
 d="M34.871,52.000 C34.382,55.383 31.502,58.000 27.997,58.000 C24.493,58.000 21.612,55.383 21.124,52.000 L-0.005,52.000 L1.320,50.368 C1.398,50.273 9.067,40.715 9.067,31.000 L9.067,19.000 C9.067,8.701 17.736,0.000 27.997,0.000 C38.259,0.000 46.928,8.701 46.928,19.000 L46.928,31.000 C46.928,40.731 54.597,50.273 54.674,50.367 L56.002,52.000 L34.871,52.000 ZM27.997,56.000 C30.403,56.000 32.415,54.279 32.878,52.000 L23.116,52.000 C23.579,54.279 25.592,56.000 27.997,56.000 ZM44.935,31.000 L44.935,19.000 C44.935,9.785 37.179,2.000 27.997,2.000 C18.816,2.000 11.059,9.785 11.059,19.000 L11.059,31.000 C11.059,39.064 6.368,46.737 4.079,50.000 L51.916,50.000 C49.627,46.737 44.935,39.064 44.935,31.000 Z"/>
</svg>