<svg 
 xmlns="http://www.w3.org/2000/svg"
 xmlns:xlink="http://www.w3.org/1999/xlink"
 width="18px" height="18px">
<path fill-rule="evenodd"  fill="rgb(46, 46, 58)"
 d="M17.317,2.743 L9.244,-0.005 C9.053,-0.042 8.899,-0.042 8.748,-0.005 L0.672,2.747 C0.015,2.949 0.033,3.468 0.033,3.483 L0.033,14.060 C0.033,14.366 0.224,14.635 0.529,14.749 L8.748,17.929 C8.895,17.991 9.208,17.965 9.285,17.929 L17.504,14.753 C17.809,14.639 18.000,14.370 18.000,14.064 L18.000,3.483 C18.000,3.255 17.860,2.813 17.317,2.743 ZM9.016,1.490 L15.057,3.520 L9.016,5.823 L2.976,3.520 L9.016,1.490 ZM1.525,13.526 L1.525,4.596 L8.252,7.164 L8.252,16.131 L1.525,13.526 ZM16.508,13.526 L9.781,16.131 L9.781,7.186 L16.508,4.596 L16.508,13.526 Z"/>
</svg>