<svg 
 xmlns="http://www.w3.org/2000/svg"
 xmlns:xlink="http://www.w3.org/1999/xlink"
 width="22px" height="22px">
<path fill-rule="evenodd"  fill="rgb(255, 255, 255)"
 d="M14.903,22.000 C14.707,22.000 14.548,21.841 14.548,21.645 C14.548,21.449 14.707,21.290 14.903,21.290 L21.290,21.290 L21.290,14.903 C21.290,14.707 21.449,14.548 21.645,14.548 C21.841,14.548 22.000,14.707 22.000,14.903 L22.000,22.000 L14.903,22.000 ZM21.645,7.452 C21.449,7.452 21.290,7.293 21.290,7.097 L21.290,0.710 L14.903,0.710 C14.707,0.710 14.548,0.551 14.548,0.355 C14.548,0.159 14.707,0.000 14.903,0.000 L22.000,0.000 L22.000,7.097 C22.000,7.293 21.841,7.452 21.645,7.452 ZM7.097,0.710 L0.710,0.710 L0.710,7.097 C0.710,7.293 0.551,7.452 0.355,7.452 C0.159,7.452 -0.000,7.293 -0.000,7.097 L-0.000,0.000 L7.097,0.000 C7.293,0.000 7.452,0.159 7.452,0.355 C7.452,0.551 7.293,0.710 7.097,0.710 ZM3.903,3.903 L18.097,3.903 L18.097,18.097 L3.903,18.097 L3.903,3.903 ZM4.613,17.387 L17.387,17.387 L17.387,4.613 L4.613,4.613 L4.613,17.387 ZM0.355,14.548 C0.551,14.548 0.710,14.707 0.710,14.903 L0.710,21.290 L7.097,21.290 C7.293,21.290 7.452,21.449 7.452,21.645 C7.452,21.841 7.293,22.000 7.097,22.000 L-0.000,22.000 L-0.000,14.903 C-0.000,14.707 0.159,14.548 0.355,14.548 Z"/>
</svg>