<svg 
 xmlns="http://www.w3.org/2000/svg"
 xmlns:xlink="http://www.w3.org/1999/xlink"
 width="8px" height="18px">
<path fill-rule="evenodd"  fill="rgb(46, 46, 58)"
 d="M6.115,0.000 C7.280,0.000 7.862,0.822 7.862,1.762 C7.862,2.936 6.851,4.022 5.533,4.022 C4.430,4.022 3.786,3.347 3.816,2.231 C3.816,1.292 4.583,0.000 6.115,0.000 ZM2.529,18.000 C1.610,18.000 0.935,17.413 1.579,14.829 L2.635,10.247 C2.819,9.513 2.849,9.220 2.635,9.220 C2.359,9.220 1.165,9.727 0.459,10.226 L-0.000,9.433 C2.237,7.466 4.811,6.313 5.914,6.313 C6.833,6.313 6.986,7.458 6.527,9.220 L5.318,14.036 C5.104,14.888 5.196,15.181 5.410,15.181 C5.686,15.181 6.590,14.828 7.479,14.094 L8.000,14.828 C5.824,17.118 3.449,18.000 2.529,18.000 Z"/>
</svg>