<svg 
 xmlns="http://www.w3.org/2000/svg"
 xmlns:xlink="http://www.w3.org/1999/xlink"
 width="25px" height="25px">
<path fill-rule="evenodd"  fill="rgb(255, 255, 255)"
 d="M22.603,5.239 C22.603,5.240 22.603,5.240 22.603,5.240 C22.603,5.240 22.602,5.240 22.602,5.240 L14.109,13.738 L9.192,15.818 L11.222,10.892 L11.279,10.835 L22.154,-0.004 L24.999,2.842 L22.603,5.239 ZM10.694,14.301 L13.647,13.052 L21.742,4.953 L20.040,3.249 L11.910,11.352 L10.694,14.301 ZM22.153,1.143 L20.614,2.677 L22.316,4.379 L23.852,2.842 L22.153,1.143 ZM13.391,4.709 L0.815,4.709 L0.815,24.192 L20.288,24.192 L20.288,11.609 C20.288,11.385 20.469,11.204 20.693,11.204 C20.918,11.204 21.099,11.385 21.099,11.609 L21.099,25.003 L0.004,25.003 L0.004,3.898 L13.391,3.898 C13.616,3.898 13.797,4.080 13.797,4.304 C13.797,4.528 13.616,4.709 13.391,4.709 Z"/>
</svg>