<svg 
 xmlns="http://www.w3.org/2000/svg"
 xmlns:xlink="http://www.w3.org/1999/xlink"
 width="25px" height="20px">
<path fill-rule="evenodd"  fill="rgb(255, 255, 255)"
 d="M19.758,18.502 L19.758,18.519 L19.518,18.620 C19.518,18.621 19.517,18.621 19.517,18.621 L18.952,18.866 L18.952,18.827 C16.946,19.593 14.841,20.000 12.673,20.000 C12.614,20.000 12.555,20.000 12.496,19.999 C5.608,19.999 0.000,16.376 0.000,11.923 L0.000,8.077 C0.000,3.623 5.608,-0.000 12.500,-0.000 C19.192,-0.000 24.656,3.418 24.970,7.692 L25.000,7.692 L25.000,8.077 L25.000,11.923 C25.000,14.559 23.039,17.000 19.758,18.502 ZM23.002,11.272 C23.165,11.063 23.314,10.850 23.445,10.632 C23.488,10.559 23.524,10.485 23.564,10.411 C23.661,10.233 23.750,10.053 23.824,9.871 C23.866,9.769 23.899,9.666 23.933,9.563 C23.986,9.403 24.035,9.242 24.071,9.078 C24.097,8.960 24.116,8.840 24.133,8.720 C24.145,8.634 24.150,8.548 24.157,8.461 L13.519,8.461 L19.561,13.887 C20.994,13.207 22.143,12.341 22.937,11.360 C22.960,11.331 22.979,11.301 23.002,11.272 ZM0.806,11.923 C0.806,15.952 6.052,19.230 12.500,19.230 C14.739,19.250 16.902,18.843 18.952,18.016 L18.952,15.020 L18.952,15.002 C18.761,15.075 18.564,15.126 18.371,15.192 C18.120,15.278 17.871,15.365 17.617,15.439 C17.345,15.519 17.070,15.583 16.794,15.649 C16.509,15.717 16.226,15.788 15.938,15.842 C15.697,15.887 15.453,15.917 15.210,15.951 C14.891,15.998 14.572,16.048 14.249,16.077 C13.974,16.101 13.695,16.105 13.418,16.117 C13.169,16.128 12.923,16.154 12.673,16.154 C12.614,16.154 12.555,16.154 12.496,16.153 C11.898,16.153 11.315,16.117 10.740,16.064 C10.613,16.052 10.486,16.041 10.360,16.026 C9.796,15.963 9.243,15.882 8.707,15.771 C8.658,15.761 8.611,15.747 8.562,15.737 C8.063,15.629 7.581,15.499 7.113,15.354 C7.010,15.322 6.906,15.292 6.805,15.258 C6.314,15.095 5.840,14.914 5.390,14.712 C5.318,14.679 5.251,14.643 5.179,14.610 C4.781,14.423 4.402,14.222 4.042,14.006 C3.966,13.961 3.887,13.919 3.813,13.872 C3.423,13.628 3.059,13.368 2.721,13.093 C2.651,13.036 2.587,12.977 2.519,12.919 C2.225,12.666 1.953,12.404 1.705,12.130 C1.662,12.083 1.615,12.038 1.574,11.990 C1.308,11.682 1.079,11.360 0.877,11.029 C0.856,10.995 0.826,10.965 0.806,10.932 L0.806,11.923 ZM0.806,8.077 C0.806,12.106 6.052,15.384 12.500,15.384 C13.583,15.390 14.648,15.294 15.692,15.106 C15.730,15.099 15.769,15.097 15.807,15.089 C16.149,15.025 16.485,14.932 16.823,14.847 C17.038,14.791 17.257,14.748 17.470,14.684 C17.724,14.609 17.971,14.511 18.221,14.423 C18.402,14.360 18.583,14.294 18.763,14.226 L11.480,7.692 L12.097,7.692 L12.097,0.773 C5.835,0.907 0.806,4.132 0.806,8.077 ZM12.903,0.773 L12.903,7.692 L24.163,7.692 C23.847,3.925 18.959,0.902 12.903,0.773 ZM23.471,11.960 C23.392,12.053 23.299,12.141 23.214,12.232 C23.009,12.455 22.792,12.673 22.554,12.882 C22.434,12.987 22.306,13.087 22.178,13.189 C21.942,13.376 21.693,13.556 21.431,13.729 C21.288,13.823 21.146,13.917 20.995,14.006 C20.699,14.183 20.385,14.347 20.061,14.506 C19.956,14.557 19.866,14.618 19.758,14.667 L19.758,14.673 L19.758,17.654 C22.548,16.277 24.194,14.166 24.194,11.923 L24.194,10.951 C24.190,10.957 24.185,10.962 24.182,10.968 C23.981,11.310 23.740,11.640 23.471,11.960 Z"/>
</svg>