<svg 
 xmlns="http://www.w3.org/2000/svg"
 xmlns:xlink="http://www.w3.org/1999/xlink"
 width="25px" height="25px">
<path fill-rule="evenodd"  fill="rgb(227, 227, 227)"
 d="M21.941,25.002 L15.113,25.002 L15.113,17.573 L9.892,17.573 L9.892,25.002 L3.064,25.002 L3.064,13.445 L0.701,13.445 C0.314,13.445 -0.002,13.122 -0.002,12.723 C-0.003,12.530 0.076,12.339 0.214,12.202 L12.502,-0.005 L17.121,4.584 L17.121,3.126 L21.941,3.126 L21.941,9.372 L24.791,12.203 C25.070,12.477 25.078,12.935 24.810,13.222 C24.678,13.363 24.494,13.444 24.303,13.444 L21.941,13.444 L21.941,25.002 ZM16.318,23.764 L20.736,23.764 L20.736,12.206 L23.061,12.206 L20.736,9.897 L20.736,4.365 L18.326,4.365 L18.326,7.503 L12.502,1.717 L1.943,12.207 L4.269,12.207 L4.269,23.764 L8.687,23.764 L8.687,16.335 L16.318,16.335 L16.318,23.764 ZM23.953,13.092 C23.954,13.093 23.955,13.093 23.955,13.094 L23.953,13.092 ZM1.052,13.092 L1.050,13.094 C1.051,13.093 1.052,13.092 1.052,13.092 Z"/>
</svg>