<svg 
 xmlns="http://www.w3.org/2000/svg"
 xmlns:xlink="http://www.w3.org/1999/xlink"
 width="22px" height="33px">
<path fill-rule="evenodd"  fill="rgb(255, 255, 255)"
 d="M11.379,32.586 L11.000,32.994 L10.621,32.586 C10.187,32.119 0.000,21.044 0.000,11.278 C0.000,5.061 4.934,0.004 11.000,0.004 C17.065,0.004 22.000,5.061 22.000,11.278 C22.000,21.044 11.813,32.119 11.379,32.586 ZM11.000,1.077 C5.512,1.077 1.048,5.653 1.048,11.278 C1.048,19.584 9.135,29.293 11.000,31.421 C12.865,29.292 20.952,19.579 20.952,11.278 C20.952,5.653 16.488,1.077 11.000,1.077 ZM11.000,16.110 C8.401,16.110 6.286,13.942 6.286,11.278 C6.286,8.614 8.401,6.446 11.000,6.446 C13.600,6.446 15.714,8.614 15.714,11.278 C15.714,13.942 13.600,16.110 11.000,16.110 ZM11.000,7.520 C8.978,7.520 7.333,9.205 7.333,11.278 C7.333,13.350 8.978,15.036 11.000,15.036 C13.022,15.036 14.667,13.350 14.667,11.278 C14.667,9.205 13.022,7.520 11.000,7.520 Z"/>
</svg>