<svg 
 xmlns="http://www.w3.org/2000/svg"
 xmlns:xlink="http://www.w3.org/1999/xlink"
 width="27px" height="27px">
<path fill-rule="evenodd"  fill="rgb(255, 255, 255)"
 d="M20.041,26.996 L16.120,26.996 C15.032,26.996 14.625,26.404 14.479,26.052 C14.165,25.294 14.474,24.323 14.940,23.857 C15.417,23.430 15.681,22.842 15.684,22.227 C15.687,21.645 15.463,21.097 15.053,20.684 C14.644,20.271 14.098,20.042 13.516,20.040 C13.513,20.040 13.509,20.040 13.505,20.040 C12.309,20.040 11.333,21.010 11.327,22.207 C11.319,22.833 11.583,23.426 12.051,23.838 C12.537,24.323 12.846,25.295 12.533,26.052 C12.386,26.404 11.979,26.996 10.891,26.996 L-0.001,26.996 L-0.001,16.107 C-0.001,15.020 0.591,14.613 0.944,14.467 C1.702,14.152 2.673,14.463 3.139,14.928 C3.566,15.404 4.154,15.669 4.769,15.672 C4.773,15.672 4.777,15.672 4.780,15.672 C5.358,15.672 5.902,15.448 6.313,15.041 C6.726,14.632 6.955,14.086 6.958,13.504 C6.964,12.303 5.991,11.322 4.790,11.317 C4.172,11.314 3.570,11.572 3.158,12.040 C2.673,12.526 1.701,12.835 0.944,12.521 C0.591,12.375 -0.001,11.968 -0.001,10.881 L-0.001,6.961 L7.406,6.961 C8.073,6.961 8.200,6.655 8.242,6.554 C8.402,6.167 8.227,5.567 7.969,5.309 C7.902,5.250 7.822,5.170 7.747,5.086 C6.626,3.833 6.733,1.902 7.987,0.781 C9.240,-0.340 11.172,-0.232 12.293,1.021 C13.414,2.274 13.307,4.205 12.053,5.325 C11.813,5.567 11.638,6.167 11.798,6.554 C11.840,6.655 11.967,6.961 12.634,6.961 L20.041,6.961 L20.041,16.107 C20.041,16.775 20.347,16.901 20.448,16.943 C20.835,17.103 21.436,16.928 21.694,16.670 C22.254,16.032 23.080,15.675 23.966,15.672 C24.827,15.676 25.650,16.047 26.223,16.688 C26.767,17.295 27.041,18.077 26.995,18.890 C26.950,19.703 26.591,20.450 25.983,20.993 C25.377,21.536 24.600,21.811 23.780,21.765 C22.967,21.719 22.220,21.360 21.677,20.753 C21.436,20.512 20.835,20.338 20.448,20.498 C20.347,20.540 20.041,20.667 20.041,21.334 L20.041,26.996 ZM13.505,19.168 C13.510,19.168 13.515,19.168 13.520,19.168 C14.335,19.172 15.099,19.492 15.672,20.071 C16.246,20.650 16.559,21.417 16.556,22.231 C16.552,23.092 16.181,23.915 15.539,24.489 C15.299,24.730 15.123,25.330 15.284,25.718 C15.325,25.819 15.452,26.125 16.120,26.125 L19.170,26.125 L19.170,21.334 C19.170,20.247 19.762,19.839 20.114,19.693 C20.872,19.379 21.844,19.688 22.310,20.155 C22.714,20.606 23.248,20.863 23.829,20.895 C24.413,20.931 24.969,20.732 25.402,20.344 C25.836,19.956 26.093,19.422 26.126,18.842 C26.158,18.261 25.962,17.702 25.574,17.269 C25.164,16.810 24.576,16.546 23.960,16.543 L23.957,16.543 C23.331,16.550 22.740,16.798 22.329,17.266 C21.843,17.753 20.872,18.062 20.114,17.748 C19.762,17.602 19.170,17.194 19.170,16.107 L19.170,7.832 L12.634,7.832 C11.547,7.832 11.139,7.240 10.993,6.888 C10.680,6.131 10.989,5.159 11.455,4.693 C11.906,4.289 12.163,3.755 12.195,3.175 C12.228,2.594 12.032,2.035 11.644,1.601 C11.256,1.168 10.722,0.911 10.141,0.879 C9.561,0.846 9.001,1.042 8.568,1.430 C7.672,2.231 7.595,3.610 8.396,4.505 C8.450,4.565 8.507,4.623 8.568,4.676 C9.052,5.159 9.361,6.131 9.047,6.888 C8.901,7.240 8.493,7.832 7.406,7.832 L0.870,7.832 L0.870,10.881 C0.870,11.548 1.177,11.675 1.277,11.717 C1.665,11.877 2.265,11.702 2.523,11.444 C3.084,10.806 3.933,10.433 4.797,10.445 C6.475,10.453 7.837,11.827 7.829,13.508 C7.826,14.323 7.505,15.087 6.926,15.660 C6.351,16.230 5.589,16.543 4.780,16.543 C4.775,16.543 4.770,16.543 4.765,16.543 C3.904,16.539 3.081,16.168 2.506,15.527 C2.265,15.286 1.664,15.111 1.277,15.272 C1.177,15.313 0.870,15.440 0.870,16.107 L0.870,26.125 L10.891,26.125 C11.559,26.125 11.686,25.819 11.728,25.718 C11.888,25.331 11.713,24.730 11.455,24.473 C10.817,23.912 10.445,23.076 10.456,22.199 C10.464,20.527 11.830,19.168 13.505,19.168 Z"/>
</svg>