<svg 
 xmlns="http://www.w3.org/2000/svg"
 xmlns:xlink="http://www.w3.org/1999/xlink"
 width="24px" height="22px">
<path fill-rule="evenodd"  fill="rgb(255, 255, 255)"
 d="M12.571,15.945 L12.571,17.890 C15.123,17.936 17.650,18.629 19.897,19.908 C20.173,20.065 20.272,20.421 20.118,20.702 C20.014,20.894 19.819,21.002 19.619,21.002 C19.525,21.002 19.429,20.978 19.341,20.928 C17.106,19.656 14.572,19.005 12.012,19.056 C11.998,19.056 11.984,19.056 11.970,19.056 C9.401,19.022 6.883,19.663 4.659,20.928 C4.383,21.085 4.035,20.983 3.882,20.702 C3.728,20.421 3.827,20.065 4.103,19.908 C6.345,18.632 8.866,17.940 11.429,17.890 L11.429,15.945 L0.000,15.945 L0.000,-0.004 L24.000,-0.004 L24.000,15.945 L12.571,15.945 ZM22.857,1.163 L1.143,1.163 L1.143,14.778 L22.857,14.778 L22.857,1.163 Z"/>
</svg>