<svg 
 xmlns="http://www.w3.org/2000/svg"
 xmlns:xlink="http://www.w3.org/1999/xlink"
 width="23px" height="23px">
<path fill-rule="evenodd"  fill="rgb(255, 255, 255)"
 d="M17.806,23.000 L17.806,17.806 L23.000,17.806 L23.000,23.000 L17.806,23.000 ZM22.258,18.548 L18.548,18.548 L18.548,22.258 L22.258,22.258 L22.258,18.548 ZM17.806,8.899 L23.000,8.899 L23.000,14.092 L17.806,14.092 L17.806,8.899 ZM18.548,13.351 L22.258,13.351 L22.258,9.641 L18.548,9.641 L18.548,13.351 ZM17.806,0.000 L23.000,0.000 L23.000,5.194 L17.806,5.194 L17.806,0.000 ZM18.548,4.451 L22.258,4.451 L22.258,0.742 L18.548,0.742 L18.548,4.451 ZM8.903,17.806 L14.097,17.806 L14.097,23.000 L8.903,23.000 L8.903,17.806 ZM9.645,22.258 L13.355,22.258 L13.355,18.548 L9.645,18.548 L9.645,22.258 ZM8.903,8.899 L14.097,8.899 L14.097,14.092 L8.903,14.092 L8.903,8.899 ZM9.645,13.351 L13.355,13.351 L13.355,9.641 L9.645,9.641 L9.645,13.351 ZM8.903,0.000 L14.097,0.000 L14.097,5.194 L8.903,5.194 L8.903,0.000 ZM9.645,4.451 L13.355,4.451 L13.355,0.742 L9.645,0.742 L9.645,4.451 ZM0.000,17.806 L5.194,17.806 L5.194,23.000 L0.000,23.000 L0.000,17.806 ZM0.742,22.258 L4.452,22.258 L4.452,18.548 L0.742,18.548 L0.742,22.258 ZM0.000,8.899 L5.194,8.899 L5.194,14.092 L0.000,14.092 L0.000,8.899 ZM0.742,13.351 L4.452,13.351 L4.452,9.641 L0.742,9.641 L0.742,13.351 ZM0.000,0.000 L5.194,0.000 L5.194,5.194 L0.000,5.194 L0.000,0.000 ZM0.742,4.451 L4.452,4.451 L4.452,0.742 L0.742,0.742 L0.742,4.451 Z"/>
</svg>