<svg 
 xmlns="http://www.w3.org/2000/svg"
 xmlns:xlink="http://www.w3.org/1999/xlink"
 width="24px" height="25px">
<path fill-rule="evenodd"  fill="rgb(255, 255, 255)"
 d="M20.690,20.161 L20.690,25.000 L2.483,25.000 L2.483,20.968 L0.414,20.968 C0.185,20.968 -0.000,20.787 -0.000,20.564 C-0.000,20.342 0.185,20.161 0.414,20.161 L2.483,20.161 L2.483,16.936 L0.414,16.936 C0.185,16.936 -0.000,16.755 -0.000,16.532 C-0.000,16.309 0.185,16.129 0.414,16.129 L2.483,16.129 L2.483,12.903 L0.414,12.903 C0.185,12.903 -0.000,12.723 -0.000,12.500 C-0.000,12.277 0.185,12.097 0.414,12.097 L2.483,12.097 L2.483,8.871 L0.414,8.871 C0.185,8.871 -0.000,8.690 -0.000,8.468 C-0.000,8.245 0.185,8.064 0.414,8.064 L2.483,8.064 L2.483,4.839 L0.414,4.839 C0.185,4.839 -0.000,4.658 -0.000,4.435 C-0.000,4.213 0.185,4.032 0.414,4.032 L2.483,4.032 L2.483,-0.000 L20.690,-0.000 L20.690,2.419 L24.000,2.419 L24.000,20.161 L20.690,20.161 ZM19.862,0.807 L3.310,0.807 L3.310,4.032 L4.552,4.032 C4.780,4.032 4.965,4.213 4.965,4.435 C4.965,4.658 4.780,4.839 4.552,4.839 L3.310,4.839 L3.310,8.064 L4.552,8.064 C4.780,8.064 4.965,8.245 4.965,8.468 C4.965,8.690 4.780,8.871 4.552,8.871 L3.310,8.871 L3.310,12.097 L4.552,12.097 C4.780,12.097 4.965,12.277 4.965,12.500 C4.965,12.723 4.780,12.903 4.552,12.903 L3.310,12.903 L3.310,16.129 L4.552,16.129 C4.780,16.129 4.965,16.309 4.965,16.532 C4.965,16.755 4.780,16.936 4.552,16.936 L3.310,16.936 L3.310,20.161 L4.552,20.161 C4.780,20.161 4.965,20.342 4.965,20.564 C4.965,20.787 4.780,20.968 4.552,20.968 L3.310,20.968 L3.310,24.193 L19.862,24.193 L19.862,0.807 ZM23.172,3.226 L20.690,3.226 L20.690,8.064 L23.172,8.064 L23.172,3.226 ZM23.172,8.871 L20.690,8.871 L20.690,13.710 L23.172,13.710 L23.172,8.871 ZM23.172,14.516 L20.690,14.516 L20.690,19.355 L23.172,19.355 L23.172,14.516 ZM16.552,10.484 L7.448,10.484 L7.448,4.032 L16.552,4.032 L16.552,10.484 ZM15.724,4.839 L8.276,4.839 L8.276,9.677 L15.724,9.677 L15.724,4.839 Z"/>
</svg>