<svg 
 xmlns="http://www.w3.org/2000/svg"
 xmlns:xlink="http://www.w3.org/1999/xlink"
 width="19px" height="19px">
<path fill-rule="evenodd"  fill="rgb(255, 255, 255)"
 d="M18.993,18.204 L18.200,18.997 L12.977,13.774 C11.599,14.969 9.807,15.698 7.845,15.698 C3.517,15.698 -0.004,12.177 -0.004,7.849 C-0.004,3.522 3.517,0.001 7.845,0.001 C12.172,0.001 15.693,3.522 15.693,7.849 C15.693,9.812 14.964,11.603 13.769,12.981 L18.993,18.204 ZM7.845,1.122 C4.135,1.122 1.117,4.140 1.117,7.849 C1.117,11.559 4.135,14.576 7.845,14.576 C11.554,14.576 14.572,11.559 14.572,7.849 C14.572,4.140 11.554,1.122 7.845,1.122 Z"/>
</svg>