<svg 
 xmlns="http://www.w3.org/2000/svg"
 xmlns:xlink="http://www.w3.org/1999/xlink"
 width="18px" height="18px">
<path fill-rule="evenodd"  fill="rgb(46, 46, 58)"
 d="M17.286,10.857 L15.749,10.857 C15.595,11.418 15.373,11.954 15.085,12.459 L16.172,13.546 C16.450,13.824 16.450,14.277 16.172,14.556 L14.556,16.172 C14.277,16.451 13.824,16.451 13.545,16.172 L12.459,15.085 C11.954,15.373 11.417,15.595 10.857,15.749 L10.857,17.286 C10.857,17.680 10.537,18.000 10.143,18.000 L7.857,18.000 C7.463,18.000 7.143,17.680 7.143,17.286 L7.143,15.749 C6.582,15.595 6.046,15.373 5.541,15.085 L4.454,16.172 C4.185,16.442 3.714,16.442 3.444,16.172 L1.828,14.556 C1.549,14.277 1.549,13.824 1.828,13.546 L2.915,12.459 C2.627,11.954 2.405,11.417 2.251,10.857 L0.714,10.857 C0.320,10.857 0.000,10.537 0.000,10.143 L0.000,7.857 C0.000,7.463 0.320,7.143 0.714,7.143 L2.251,7.143 C2.405,6.582 2.627,6.046 2.915,5.541 L1.828,4.454 C1.693,4.320 1.619,4.140 1.619,3.949 C1.619,3.758 1.693,3.579 1.828,3.444 L3.444,1.828 C3.713,1.558 4.185,1.558 4.454,1.828 L5.541,2.915 C6.046,2.627 6.582,2.405 7.143,2.251 L7.143,0.714 C7.143,0.320 7.463,0.000 7.857,0.000 L10.143,0.000 C10.537,0.000 10.857,0.320 10.857,0.714 L10.857,2.251 C11.418,2.405 11.954,2.627 12.459,2.915 L13.546,1.828 C13.824,1.549 14.277,1.549 14.556,1.828 L16.172,3.444 C16.307,3.579 16.381,3.759 16.381,3.949 C16.381,4.140 16.307,4.320 16.172,4.455 L15.085,5.541 C15.373,6.046 15.595,6.582 15.749,7.143 L17.286,7.143 C17.680,7.143 18.000,7.463 18.000,7.857 L18.000,10.143 C18.000,10.537 17.680,10.857 17.286,10.857 ZM17.143,8.000 L15.070,8.000 L14.996,7.664 C14.841,6.967 14.568,6.308 14.184,5.706 L13.999,5.416 L15.465,3.949 L14.051,2.535 L12.585,4.001 L12.294,3.816 C11.692,3.432 11.034,3.159 10.336,3.005 L10.000,2.930 L10.000,0.857 L8.000,0.857 L8.000,2.930 L7.664,3.005 C6.967,3.159 6.308,3.433 5.706,3.816 L5.416,4.001 L3.949,2.535 L2.535,3.949 L4.001,5.415 L3.816,5.705 C3.432,6.308 3.159,6.967 3.005,7.664 L2.930,8.000 L0.857,8.000 L0.857,10.000 L2.930,10.000 L3.005,10.336 C3.159,11.033 3.432,11.692 3.816,12.294 L4.001,12.584 L2.535,14.051 L3.949,15.465 L5.415,13.999 L5.705,14.184 C6.308,14.568 6.967,14.841 7.664,14.996 L8.000,15.070 L8.000,17.143 L10.000,17.143 L10.000,15.070 L10.336,14.996 C11.033,14.841 11.692,14.568 12.294,14.184 L12.584,13.999 L14.051,15.465 L15.465,14.051 L13.999,12.585 L14.184,12.294 C14.568,11.692 14.841,11.034 14.996,10.336 L15.070,10.000 L17.143,10.000 L17.143,8.000 ZM9.000,12.286 C7.188,12.286 5.714,10.812 5.714,9.000 C5.714,7.188 7.188,5.714 9.000,5.714 C10.812,5.714 12.286,7.188 12.286,9.000 C12.286,10.812 10.812,12.286 9.000,12.286 ZM9.000,6.571 C7.661,6.571 6.571,7.661 6.571,9.000 C6.571,10.339 7.661,11.429 9.000,11.429 C10.339,11.429 11.429,10.339 11.429,9.000 C11.429,7.661 10.339,6.571 9.000,6.571 Z"/>
</svg>