<svg 
 xmlns="http://www.w3.org/2000/svg"
 xmlns:xlink="http://www.w3.org/1999/xlink"
 width="17px" height="17px">
<path fill-rule="evenodd"  fill="rgb(46, 46, 58)"
 d="M17.000,17.000 L0.000,17.000 L0.105,16.389 C0.392,14.662 1.726,13.308 3.426,13.016 C5.545,12.617 6.120,11.980 6.120,11.688 L6.120,11.077 C5.466,10.412 4.289,8.952 4.289,6.906 L4.289,4.356 C4.289,1.355 6.382,0.000 8.474,0.000 C10.566,0.000 12.658,1.355 12.658,4.356 L12.658,6.906 C12.658,8.367 11.978,9.908 10.828,11.077 L10.828,11.688 C10.828,12.272 11.665,12.723 13.286,13.016 C14.986,13.361 16.346,14.609 16.843,16.309 L17.000,17.000 ZM1.308,15.938 L15.535,15.938 C15.038,14.981 14.149,14.291 13.077,14.078 C10.828,13.626 9.782,12.883 9.782,11.688 L9.782,10.598 L9.938,10.439 C10.331,10.094 11.612,8.766 11.612,6.906 L11.612,4.356 C11.612,2.842 10.802,1.063 8.474,1.063 C6.146,1.063 5.335,2.842 5.335,4.356 L5.335,6.906 C5.335,8.713 6.486,9.988 7.009,10.439 L7.166,10.598 L7.166,11.688 C7.166,12.484 6.538,13.520 3.609,14.078 C2.563,14.238 1.700,14.981 1.308,15.938 Z"/>
</svg>